HIERARCHY
ROOT Hips
{
    OFFSET 0.0 0.0 0.0
    CHANNELS 6 Xposition Yposition Zposition Zrotation Xrotation Yrotation
    JOINT LeftUpLeg
    {
        OFFSET 13.65136704143488 0.0 0.0
        CHANNELS 3 Zrotation Xrotation Yrotation
        JOINT LeftLeg
        {
            OFFSET 0.0 0.0 -45.44946480083768
            CHANNELS 3 Zrotation Xrotation Yrotation
            JOINT LeftFoot
            {
                OFFSET 0.0 0.0 -35.51062253850796
                CHANNELS 3 Zrotation Xrotation Yrotation
                JOINT LeftToeBase
                {
                    OFFSET 0.0 -13.245554096568505 0.0
                    CHANNELS 3 Zrotation Xrotation Yrotation
                    End Site
                    {
                        OFFSET 0 0 0
                    }
                }
            }
        }
    }
    JOINT RightUpLeg
    {
        OFFSET -13.65136704143488 0.0 0.0
        CHANNELS 3 Zrotation Xrotation Yrotation
        JOINT RightLeg
        {
            OFFSET 0.0 0.0 -45.44946480083768
            CHANNELS 3 Zrotation Xrotation Yrotation
            JOINT RightFoot
            {
                OFFSET 0.0 0.0 -35.51062253850796
                CHANNELS 3 Zrotation Xrotation Yrotation
                JOINT RightToeBase
                {
                    OFFSET 0.0 -13.245554096568505 0.0
                    CHANNELS 3 Zrotation Xrotation Yrotation
                    End Site
                    {
                        OFFSET 0 0 0
                    }
                }
            }
        }
    }
    JOINT Spine
    {
        OFFSET 0.0 0.0 12.234779817179426
        CHANNELS 3 Zrotation Xrotation Yrotation
        JOINT Spine1
        {
            OFFSET 0.0 0.0 12.200986689644422
            CHANNELS 3 Zrotation Xrotation Yrotation
            JOINT Spine2
            {
                OFFSET 0.0 0.0 12.200986689644422
                CHANNELS 3 Zrotation Xrotation Yrotation
                JOINT Spine3
                {
                    OFFSET 0.0 0.0 12.200986689644417
                    CHANNELS 3 Zrotation Xrotation Yrotation
                    JOINT Spine4
                    {
                        OFFSET 0.0 0.0 12.200986689644425
                        CHANNELS 3 Zrotation Xrotation Yrotation
                        JOINT RightShoulder
                        {
                            OFFSET -21.936318592225998 0.0 0.0
                            CHANNELS 3 Zrotation Xrotation Yrotation
                            JOINT RightArm
                            {
                                OFFSET -33.10191330719546 0.0 0.0
                                CHANNELS 3 Zrotation Xrotation Yrotation
                                JOINT RightForeArm
                                {
                                    OFFSET -32.6577339728339 0.0 0.0
                                    CHANNELS 3 Zrotation Xrotation Yrotation
                                    JOINT RightHand
                                    {
                                        OFFSET -11.167845237281618 0.0 0.0
                                        CHANNELS 3 Zrotation Xrotation Yrotation
                                        End Site
                                        {
                                            OFFSET 0 0 0
                                        }
                                    }
                                }
                            }
                        }
                        JOINT LeftShoulder
                        {
                            OFFSET 21.936318592225998 0.0 0.0
                            CHANNELS 3 Zrotation Xrotation Yrotation
                            JOINT LeftArm
                            {
                                OFFSET 33.10191330719546 0.0 0.0
                                CHANNELS 3 Zrotation Xrotation Yrotation
                                JOINT LeftForeArm
                                {
                                    OFFSET 32.6577339728339 0.0 0.0
                                    CHANNELS 3 Zrotation Xrotation Yrotation
                                    JOINT LeftHand
                                    {
                                        OFFSET 11.167845237281618 0.0 0.0
                                        CHANNELS 3 Zrotation Xrotation Yrotation
                                        End Site
                                        {
                                            OFFSET 0 0 0
                                        }
                                    }
                                }
                            }
                        }
                        JOINT Neck
                        {
                            OFFSET 0.0 0.0 12.200986762500484
                            CHANNELS 3 Zrotation Xrotation Yrotation
                            JOINT Head
                            {
                                OFFSET 0.0 0.0 25.439778368212444
                                CHANNELS 3 Zrotation Xrotation Yrotation
                                End Site
                                {
                                    OFFSET 0 0 0
                                }
                            }
                        }
                    }
                }
            }
        }
    }
}
MOTION
Frames: 9
Frame Time: 0.03333333333333333
26.258733165264132 -29.970520198345188 508.8378398895263 134.90451894069076 -80.00221091953482 133.1622342848285 22.671597753990497 -18.595321135967666 -31.80740639694986 -36.315084819250934 5.454923848684962 26.174395425284683 17.553241512239133 -3.1805546814635168e-15 64.83952097857684 -3.1805546814635168e-15 0.0 0.0 39.298325261152065 34.83463315658067 8.045546815691095 -38.17984524439186 -15.776082806307441 -18.41339991350506 -16.94786973792494 1.4312496066585827e-14 -77.89266444122947 0.0 0.0 -3.1805546814635176e-15 -0.04993865179727814 1.975266606965131 -0.5793393588975956 -7.951386703658792e-16 0.0 0.0 -7.951386703658792e-16 0.0 0.0 -7.951386703658792e-16 0.0 0.0 -7.951386703658792e-16 0.0 0.0 -170.95998317388413 1.4419728263345244 169.8118238521976 28.923577153050974 3.350244039583973e-15 -3.3275212646082176e-15 6.459468365681425e-15 72.97463379937865 -8.73351302655767e-15 -1.3793457181406746e-33 9.939233379573487e-17 1.590277340731758e-15 171.00303388912903 -5.703455084175316 -168.02931760331475 -36.13476709720949 1.1790699058846354e-14 5.519123700153458e-15 -180.0 -62.3402517050852 -180.0 0.0 0.0 0.0 -1.218044134729941 7.735769116451112e-15 -7.12953598968054e-16 0.0 0.0 0.0
26.047606337070466 -30.1694876074791 508.9766452789306 134.74729150790748 -79.83360754625267 133.12602107483684 15.798346166181984 -12.713982187051446 -32.3153749658825 -27.38693342896664 4.842117063080863 20.956971938853375 16.917440093909274 -9.54166404439055e-15 68.96800071049637 1.5902773407317584e-15 4.4139062980501586e-32 3.1805546814635168e-15 37.88606617915251 33.96248613230321 7.089683099306605 -30.315755866446356 -14.028262735058295 -10.664025966335958 -18.59952486189395 7.951386703658792e-15 -88.50065196966102 0.0 0.0 0.0 -0.04653545518357593 1.930625414793552 -0.518251303202945 -7.951386703658792e-16 0.0 0.0 -7.951386703658792e-16 0.0 0.0 -7.951386703658792e-16 0.0 0.0 -7.951386703658792e-16 0.0 0.0 -170.71771850769173 1.8080108645806274 169.59555527547485 29.26814643229396 1.444229697459217e-14 -2.1275123182336313e-15 -1.1480008877335743e-14 77.52391855724296 9.217621590000071e-15 -3.975693351829396e-16 0.0 0.0 170.83284886894285 -3.714599965938766 -168.16264879645084 -34.64459298106057 1.1098706316562831e-14 -1.5358926418648521e-15 -180.0 -67.20758185396318 -180.0 -3.1805546814635168e-15 0.0 0.0 -0.9745223499749951 -7.770406850022104e-15 -8.612509807275558e-16 -1.5902773407317582e-15 0.0 0.0
25.869041311740876 -30.46319983005524 509.1382873535156 134.838217229685 -79.69279034807835 133.37795524291062 13.82605515517615 -10.968997142696143 -32.63011191806752 -22.675071192568378 4.074104259957262 25.815880618491903 10.324911958798149 1.1131941385122309e-14 60.78339329736048 0.0 0.0 -3.1805546814635168e-15 36.0487178108802 32.815069714523325 5.78365898569128 -21.055504050494598 -11.101407097951414 -2.4497100094993502 -18.791424526391587 1.5902773407317584e-15 -96.09929257041411 0.0 0.0 3.1805546814635168e-15 -0.043802896557092914 1.8858264809416627 -0.42865246367762244 7.951386703658792e-16 -4.969616689786745e-17 -7.951386703658792e-16 7.951386703658792e-16 -4.969616689786745e-17 -7.951386703658792e-16 7.951386703658792e-16 -4.969616689786745e-17 -7.951386703658792e-16 7.951386703658792e-16 -4.969616689786745e-17 -7.951386703658792e-16 -170.41137972732434 2.590087662339828 169.22353930091262 29.329882024973013 -9.074488036426811e-15 -9.12943669095382e-16 8.95558001826877e-15 75.57337853701866 -8.95558001826877e-15 0.0 9.939233379573489e-17 0.0 170.62658040495265 -1.5991196284110023 -168.35044655105222 -32.930529972826115 -1.5945358211785679e-15 1.187008812908946e-15 180.0 -68.5172847853883 180.0 0.0 0.0 1.5902773407317584e-15 -0.7105670496062496 5.277553451719232e-15 -1.5575820869101503e-15 0.0 0.0 0.0
25.7357456445694 -30.836056137084963 509.30978565216066 135.0185605663234 -79.5718459662711 133.74498343090605 13.601785209741449 -10.818646043842861 -33.29607884041599 -21.59843337645509 3.6620931990166077 34.45115215535452 1.4562916815940623 1.5505204072134644e-14 43.76576909426924 -3.1805546814635168e-15 8.827812596100317e-32 -3.1805546814635168e-15 35.23204829544273 32.25327947528913 4.6420594301709315 -19.025785871996117 -10.744339459024825 -1.8769592445538774 -22.83644702918625 0.0 -91.76900211727565 0.0 0.0 0.0 -0.04084664724297653 1.844056450288163 -0.3287516234867607 7.951386703658792e-16 0.0 0.0 7.951386703658792e-16 0.0 0.0 7.951386703658792e-16 0.0 0.0 7.951386703658792e-16 0.0 0.0 -170.00957531043616 3.5795377061286326 168.72943048736929 29.246436276421566 2.3574149648318395e-14 2.0667708963991514e-15 -1.324702911443529e-14 80.26098661025455 1.324702911443529e-14 -3.975693351829396e-16 0.0 0.0 170.27430656420938 0.8234487373724286 -168.5207299375155 -30.962764462992954 -1.3656072352379448e-14 -5.432535082833334e-15 180.0 -70.86813780587654 180.0 0.0 0.0 1.5902773407317582e-15 -0.47063692166096543 -1.543379536933023e-14 7.317571581403459e-16 7.951386703658792e-16 0.0 0.0
25.637326133251193 -31.287021160125736 509.4794466018677 135.44420426337336 -79.50816985803722 134.37810971936844 14.545108982307825 -11.72754624351464 -34.19292672856012 -22.518818383803303 3.4304780817059743 43.89648770879225 -44.79721943245419 -1.2722218725854067e-14 27.39709748068979 0.0 0.0 0.0 34.58440020178357 31.86649790789201 3.771430059216774 -18.08145699106965 -10.729977894227515 -2.6849368551594357 -28.599356758161882 -4.770832022195275e-15 -84.89198856347141 0.0 0.0 3.1805546814635168e-15 -0.03905483009822655 1.8214095730841047 -0.24557442603843715 7.951386703658792e-16 0.0 0.0 7.951386703658792e-16 0.0 0.0 7.951386703658792e-16 0.0 0.0 7.951386703658792e-16 0.0 0.0 -169.4671378487191 4.615168725138147 168.19252253394893 29.11932328988255 -2.3734747351949396e-15 1.4379804533360962e-15 1.5854150939743132e-14 81.8654726920839 -1.5854150939743132e-14 -1.987846675914698e-15 9.93923337957349e-17 1.7241821476758432e-33 169.7373517573033 3.7661522000799876 -168.56459624022145 -29.043867044528547 7.917578072292797e-15 -1.2346625377026704e-15 179.99999999999997 -72.57016804686398 179.99999999999997 0.0 0.0 3.975693351829396e-16 -0.17518106042340492 -1.3405793759974244e-15 -7.971890026373564e-16 0.0 -6.385957446375969e-15 0.0
25.57703858613968 -31.805875110626225 509.641393661499 135.87509172153364 -79.46002722835487 135.02837435913636 16.853868313136047 -13.850181045477155 -34.99605852010008 -25.400626660054748 3.345187758614314 53.053493243100796 -111.17638875149433 -1.5902773407317584e-14 42.51389584923429 0.0 0.0 0.0 34.01092382495484 31.58594877436628 3.0684493782861053 -17.627864548635056 -10.877782518562062 -4.205874027083457 -34.84350953001476 -2.8624992133171654e-14 -77.46637487939307 0.0 0.0 -3.1805546814635164e-15 -0.03870929266369072 1.8117593031552508 -0.18043730549462966 0.0 0.0 0.0 0.0 0.0 0.0 0.0 0.0 0.0 0.0 0.0 0.0 -168.81412503944983 5.690953335207194 167.5900801395337 28.988545139917136 1.740976098731604e-14 -2.447419274057116e-15 0.0 82.29285682039269 0.0 -3.975693351829396e-16 0.0 0.0 168.96426479062762 7.351171314081778 -168.4930333432352 -27.20245593601815 3.870421643307858e-15 1.7545223118425343e-15 -180.0 -73.50858533435618 -180.0 0.0 0.0 -1.1927080055488188e-15 0.09240115838544034 1.0336158192476699e-14 -8.034735148117561e-16 0.0 0.0 0.0
25.565028405189512 -32.28654735088349 509.75504894256596 135.87750870370988 -79.38926598208411 135.21818311490296 21.25944256004901 -17.74664826318478 -35.07918639351185 -31.208780608093292 3.4686169490423624 60.62600143036116 -135.07889544170686 9.54166404439055e-15 67.93872543810963 0.0 0.0 1.5902773407317584e-15 31.63663301225018 30.21661729149285 2.0004883598226866 -13.406385409001446 -9.119932039143817 0.9649913686684389 -40.96253719970318 6.3611093629270335e-15 -74.93560637966233 0.0 0.0 0.0 -0.0396209987350736 1.8105113874523557 -0.14916103969640507 -7.951386703658792e-16 0.0 0.0 -7.951386703658792e-16 0.0 0.0 -7.951386703658792e-16 0.0 0.0 -7.951386703658792e-16 0.0 0.0 -168.2324124238187 6.442754433401621 167.07527770449968 28.917238082423403 1.5026103804774995e-14 -5.516730265446983e-15 -2.073070706437443e-14 81.89314435297275 1.9039733373378246e-14 -3.975693351829396e-16 0.0 0.0 168.41508821487122 8.764026518025615 -168.46281188083117 -26.108863374704857 2.29567906956872e-15 -1.1001700036512925e-15 180.0 -68.10018519485696 180.0 -1.5902773407317588e-15 5.963540027744095e-15 1.5902773407317588e-15 0.1980114972464344 1.2907244302151129e-15 -7.973702009050761e-16 0.0 0.0 0.0
25.585877573490144 -32.73180785179138 509.83041000366217 135.7158113133531 -79.31787242771185 135.2199331297617 26.403002420153975 -22.009917502882818 -34.24945226532133 -38.51414894979454 3.710803110573609 64.23316334821368 -146.45069097561512 -6.3611093629270335e-15 66.67008454722159 0.0 0.0 1.5902773407317584e-15 29.705688929354135 29.086876001609014 1.016512430094653 -9.670468822968648 -7.127054320899116 5.723437221644113 -49.90949018838489 -1.5902773407317584e-14 -73.9407041728848 -1.5902773407317584e-15 0.0 0.0 -0.04120066408242832 1.809065365721387 -0.12422343705819228 -7.951386703658792e-16 0.0 0.0 -7.951386703658792e-16 0.0 0.0 -7.951386703658792e-16 0.0 0.0 -7.951386703658792e-16 0.0 0.0 -167.75662755005507 6.772492495588292 166.74622615991643 28.93409185603324 -1.7347985248462723e-14 1.1911425769235385e-15 0.0 82.18342171982246 0.0 -1.5902773407317584e-15 -2.2069531490250793e-32 1.5902773407317584e-15 167.78900015365807 9.962917188763404 -168.25232717404774 -25.365947370421033 -2.676366866939978e-15 1.0277411930985961e-15 -180.0 -56.43883036685029 -180.0 0.0 0.0 -7.951386703658792e-16 0.19099060986845165 1.1478473345478143e-14 -8.142710500091149e-16 -7.951386703658792e-16 0.0 0.0
25.63123015165329 -33.12464021444321 509.87023658752446 135.46971598346386 -79.2518691229896 135.11350742880262 32.299957137044174 -26.44348303982742 -32.47234973183303 -45.92980358690556 3.9326851710756707 65.19297346426515 -154.93307728502853 -1.2722218725854067e-14 60.534797005613434 0.0 0.0 3.975693351829396e-15 27.460482219421255 27.671842419312064 -0.2737176813341627 -4.635438385010206 -3.7502343990565437 12.00878216017941 -55.869408066589635 1.2722218725854067e-14 -76.18082639689202 -1.5902773407317584e-15 0.0 0.0 -0.04333193025214642 1.8063425804661277 -0.10017593628517633 0.0 0.0 0.0 0.0 0.0 0.0 0.0 0.0 0.0 0.0 0.0 0.0 -167.39875568571452 6.848016615973394 166.56525283159021 28.984554780080394 -2.4027942570502453e-15 7.807174993060185e-15 -2.655265557669848e-15 79.0172707345546 3.220105762742822e-15 0.0 0.0 0.0 167.30064993168773 10.27440255176756 -167.9681838895049 -25.505019675799815 5.373586536196788e-15 -1.229580142736756e-15 180.0 -53.62590562926959 180.0 -1.5902773407317588e-15 0.0 0.0 0.08655887622187487 1.9728171384238088e-14 -1.6051798403004986e-15 -7.951386703658792e-16 0.0 0.0
